<?xml version="1.0" encoding="UTF-8" standalone="no"?>
<svg
   xmlns:dc="http://purl.org/dc/elements/1.1/"
   xmlns:cc="http://creativecommons.org/ns#"
   xmlns:rdf="http://www.w3.org/1999/02/22-rdf-syntax-ns#"
   xmlns:svg="http://www.w3.org/2000/svg"
   xmlns="http://www.w3.org/2000/svg"
   viewBox="0 0 278.79999 43.466667"
   height="43.466667"
   width="278.79999"
   xml:space="preserve"
   id="svg2"
   version="1.1"><metadata
     id="metadata8"><rdf:RDF><cc:Work
         rdf:about=""><dc:format>image/svg+xml</dc:format><dc:type
           rdf:resource="http://purl.org/dc/dcmitype/StillImage" /></cc:Work></rdf:RDF></metadata><defs
     id="defs6"><clipPath
       id="clipPath20"
       clipPathUnits="userSpaceOnUse"><path
         id="path18"
         d="M 0,325.984 V 0 h 2091 v 325.984 z" /></clipPath></defs><g
     transform="matrix(1.3333333,0,0,-1.3333333,0,43.466667)"
     id="g10"><g
       transform="scale(0.1)"
       id="g12"><g
         id="g14"><g
           clip-path="url(#clipPath20)"
           id="g16"><path
             id="path22"
             style="fill:#231f20;fill-opacity:1;fill-rule:nonzero;stroke:none"
             d="m 1405.74,312.207 c -1.32,6.703 -1.97,8.691 -10.09,8.691 h -11.5 c -6.25,0 -6.7,-1.25 -6.7,-6.906 v -20.625 h 13.91 c 7.46,0 9.54,1.992 10.77,8.692 h 2.52 v -21.672 h -2.52 c -1.32,7.226 -2.54,8.894 -10.77,8.894 h -13.91 v -34.754 h -9.54 v 59.465 c 0,7.539 -3.94,8.27 -11.07,9.219 l -0.01,1.797 h 51.75 l 0.57,-12.801 h -3.41" /><path
             id="path24"
             style="fill:#231f20;fill-opacity:1;fill-rule:nonzero;stroke:none"
             d="m 1440.53,296.305 c -9.86,0 -12.17,-8.907 -12.17,-16.657 v -25.121 h -8.43 v 38.321 c 0,5.539 -3.3,6.804 -8.34,7.218 v 1.778 l 16.77,2.515 v -12.457 h 0.24 c 2.28,7.118 5.8,12.457 14.57,12.457 0.33,0 0.66,0 1,-0.105 v -8.691 c -1.22,0.32 -2.43,0.742 -3.64,0.742" /><path
             id="path26"
             style="fill:#231f20;fill-opacity:1;fill-rule:nonzero;stroke:none"
             d="m 1480.94,289.078 c 0,5.863 -3.73,11.195 -10.31,11.195 -7.77,0 -11.41,-5.332 -12.05,-12.14 h 22.36 z m -22.48,-4.508 v -2.191 c 0,-12.149 9.34,-24.922 22.91,-24.922 2.64,0 5.3,0.633 7.8,1.254 v -3.457 c -3.62,-1.359 -9.75,-1.887 -13.6,-1.887 -17.54,0 -25.55,11.102 -25.55,27.02 0,14.554 5.59,23.972 22.04,23.972 11.73,0 18.43,-7.117 18.43,-18.218 v -1.571 h -32.03" /><path
             id="path28"
             style="fill:#231f20;fill-opacity:1;fill-rule:nonzero;stroke:none"
             d="m 1505.16,254.527 v 38.625 c 0,5.344 -3.51,6.5 -8.24,6.914 v 1.778 l 16.68,2.515 v -49.832 h -8.44" /><path
             id="path30"
             style="fill:#231f20;fill-opacity:1;fill-rule:nonzero;stroke:none"
             d="m 1538.93,253.367 c -4.82,0 -9.55,0.633 -14.14,2.102 v 6.59 c 4.59,-2.297 9.2,-4.602 14.57,-4.602 6.25,0 11.41,2.09 11.41,8.895 0,10.683 -25.77,10.468 -25.77,24.296 0,10.364 8.11,13.711 17.88,13.711 4.16,0 8.1,-0.836 12.16,-1.777 v -6.277 c -4.27,2.082 -8.34,3.968 -13.26,3.968 -4.61,0 -9.1,-1.562 -9.1,-6.699 0,-10.469 25.78,-8.789 25.78,-25.23 0,-11.098 -9.22,-14.977 -19.53,-14.977" /><path
             id="path32"
             style="fill:#231f20;fill-opacity:1;fill-rule:nonzero;stroke:none"
             d="m 1588.15,253.367 c -12.81,0 -15.66,3.043 -15.66,14.774 v 31.511 h -8.46 v 3.555 h 8.46 v 8.902 l 8.34,7.012 v -15.914 h 13.59 v -3.555 h -13.5 v -34.55 c 0,-6.075 3.62,-7.645 9.32,-7.645 1.43,0 2.75,0.203 4.18,0.418 V 254 c -2.09,-0.418 -4.18,-0.633 -6.27,-0.633" /><path
             id="path34"
             style="fill:#231f20;fill-opacity:1;fill-rule:nonzero;stroke:none"
             d="m 1630.71,278.086 c -7.46,-0.109 -19.42,-1.68 -19.42,-10.996 0,-4.707 3.07,-8.586 8.34,-8.586 7.02,0 11.08,7.535 11.08,13.406 z m 0,-23.559 v 6.7 c -4.3,-4.817 -8.67,-7.86 -15.59,-7.86 -7.67,0 -13.16,4.922 -13.16,12.363 0,13.821 18.01,15.286 28.75,15.598 v 4.078 c 0,6.805 0.21,14.867 -9.22,14.867 -6.37,0 -8.77,-3.664 -9.1,-9.203 h -9.77 c 0.69,10.047 9.88,13.289 19.22,13.289 12.81,0 17.31,-5.339 17.31,-17.058 v -32.774 h -8.44" /><path
             id="path36"
             style="fill:#231f20;fill-opacity:1;fill-rule:nonzero;stroke:none"
             d="m 1679.06,278.086 c -7.46,-0.109 -19.42,-1.68 -19.42,-10.996 0,-4.707 3.07,-8.586 8.34,-8.586 7.02,0 11.08,7.535 11.08,13.406 z m 0,-23.559 v 6.7 c -4.28,-4.817 -8.67,-7.86 -15.59,-7.86 -7.67,0 -13.14,4.922 -13.14,12.363 0,13.821 17.99,15.286 28.73,15.598 v 4.078 c 0,6.805 0.21,14.867 -9.24,14.867 -6.35,0 -8.75,-3.664 -9.08,-9.203 h -9.75 c 0.65,10.047 9.84,13.289 19.18,13.289 12.83,0 17.33,-5.339 17.33,-17.058 v -32.774 h -8.44" /><path
             id="path38"
             style="fill:#231f20;fill-opacity:1;fill-rule:nonzero;stroke:none"
             d="m 1718.03,253.367 c -12.83,0 -15.68,3.043 -15.68,14.774 v 31.511 h -8.44 v 3.555 h 8.44 v 8.902 l 8.34,7.012 v -15.914 h 13.59 v -3.555 h -13.49 v -34.55 c 0,-6.075 3.63,-7.645 9.31,-7.645 1.47,0 2.76,0.203 4.18,0.418 V 254 c -2.09,-0.418 -4.18,-0.633 -6.25,-0.633" /><path
             id="path40"
             style="fill:#231f20;fill-opacity:1;fill-rule:nonzero;stroke:none"
             d="m 1429.48,215.883 c -5.84,2.543 -17.89,7.465 -31.08,7.465 -13.55,0 -22.77,-7.098 -22.77,-18.207 0,-28.754 62.13,-25.121 62.13,-65.024 0,-25.117 -21.47,-35.117 -45.74,-35.117 -13.19,0 -26.94,2.898 -30.12,3.633 v 12.558 c 6.95,-3.281 19.94,-8.007 32.75,-8.007 16.57,0 26.35,7.644 26.35,23.125 0,30.789 -60.43,26.238 -60.43,64.461 0,19.843 16,30.761 41.06,30.761 12.22,0 22.38,-1.82 27.85,-2.902 v -12.746" /><path
             id="path42"
             style="fill:#231f20;fill-opacity:1;fill-rule:nonzero;stroke:none"
             d="m 1475.87,154.727 h 42.74 l -21.27,55.515 z m 9.63,53.328 c 1.31,3.285 2.82,6.914 2.82,9.832 0,4.734 -5.08,6.371 -14.52,8.558 v 3.09 h 32.41 l 48.55,-122.543 h -18.26 l -15.82,40.625 h -47.42 l -14.89,-40.625 h -11.85 l 38.98,101.063" /><path
             id="path44"
             style="fill:#231f20;fill-opacity:1;fill-rule:nonzero;stroke:none"
             d="m 1649.29,110.09 c -9.02,-2.922 -17.89,-5.09 -35.39,-5.09 -35.39,0 -54.59,30.391 -54.59,67.383 0,33.125 11.47,59.148 50.08,59.148 28.42,0 38.57,-14.375 39.9,-26.758 h -18.44 c -0.95,5.649 -4.16,18.575 -22.59,18.575 -19.94,0 -30.52,-18.383 -30.52,-46.239 0,-25.839 5.28,-63.925 46.51,-63.925 11.11,0 22.8,3.828 25.04,4.55 v -7.644" /><path
             id="path46"
             style="fill:#231f20;fill-opacity:1;fill-rule:nonzero;stroke:none"
             d="m 1680.05,208.785 c 0,12.559 -6.01,12.016 -18.84,13.473 v 3.094 l 35.21,4.183 v -55.523 h 55.16 v 55.523 h 16.38 V 106.992 h -16.38 v 59.922 h -55.16 v -59.922 h -16.37 v 101.793" /><path
             id="path48"
             style="fill:#231f20;fill-opacity:1;fill-rule:nonzero;stroke:none"
             d="m 1860.18,215.883 c -5.82,2.543 -17.87,7.465 -31.05,7.465 -13.56,0 -22.78,-7.098 -22.78,-18.207 0,-28.754 62.13,-25.121 62.13,-65.024 0,-25.117 -21.46,-35.117 -45.74,-35.117 -13.18,0 -26.93,2.898 -30.12,3.633 v 12.558 c 6.96,-3.281 19.94,-8.007 32.76,-8.007 16.56,0 26.36,7.644 26.36,23.125 0,30.789 -60.45,26.238 -60.45,64.461 0,19.843 16,30.761 41.04,30.761 12.25,0 22.4,-1.82 27.85,-2.902 v -12.746" /><path
             id="path50"
             style="fill:#231f20;fill-opacity:1;fill-rule:nonzero;stroke:none"
             d="m 1897.78,210.422 c 0,10.379 -2.64,13.836 -19.03,16.023 v 3.09 h 88.87 l 0.96,-22.207 h -5.88 c -1.86,9.465 -1.66,15.11 -17.28,15.11 h -19.79 c -10.72,0 -11.46,-2.188 -11.46,-12.016 v -35.863 h 23.88 c 15.63,0 16.94,6.554 18.46,15.109 h 4.33 v -37.664 h -4.33 c -1.88,10.543 -2.46,15.457 -18.46,15.457 h -23.88 v -42.813 c 0,-10.546 1.66,-10.546 15.42,-10.546 h 20.34 c 12.77,0 13.75,3.808 16.36,17.656 h 5.84 l -1.3,-24.766 h -73.05 v 103.43" /><path
             id="path52"
             style="fill:#231f20;fill-opacity:1;fill-rule:nonzero;stroke:none"
             d="m 2002.72,208.055 c 0,14.566 -2.66,15.836 -18.83,18.39 v 3.09 h 37.64 l 59.12,-99.418 h 0.39 v 99.418 H 2091 V 106.992 h -14.49 l -63.63,106.887 h -0.39 V 106.992 h -9.77 v 101.063" /><path
             id="path54"
             style="fill:#231f20;fill-opacity:1;fill-rule:nonzero;stroke:none"
             d="m 1509.26,313.883 c -3.24,0 -5.93,2.387 -5.93,5.566 0,3.184 2.69,5.559 5.93,5.559 3.11,0 5.84,-2.582 5.84,-5.559 0,-3.086 -2.6,-5.566 -5.84,-5.566" /><path
             id="path56"
             style="fill:#231f20;fill-opacity:1;fill-rule:evenodd;stroke:none"
             d="m 1169.75,6.11328 c -78.28,0 -141.74,63.45702 -141.74,141.73872 v 177.156 h 283.47 V 147.852 c 0,-78.2817 -63.46,-141.73872 -141.73,-141.73872" /><path
             id="path58"
             style="fill:#ffffff;fill-opacity:1;fill-rule:evenodd;stroke:none"
             d="m 1122.14,293.121 h 185.79 v -30.117 h -174.84 c 0.84,2.199 0.45,4.777 -1.47,6.992 -2.84,3.262 -6.93,3.324 -9.76,0.863 -0.59,-0.507 -1.11,-1.191 -1.48,-2.129 -2.47,1.872 -6.14,3.071 -9.13,0.469 -2.08,-1.808 -2.69,-4.023 -2.13,-6.015 -0.2,-0.063 -0.39,-0.129 -0.59,-0.18 h -6.69 c -2.08,0.598 -4.01,1.777 -5.53,3.516 -4.11,4.738 -3.81,12.347 0.88,16.429 0.61,0.528 1.54,0.465 2.06,-0.148 0.29,-0.332 0.41,-0.774 0.36,-1.172 -0.38,-2.422 -1.13,-3.555 -2.74,-5.242 l 0.9,-1.039 c 2.74,-3.157 7.85,-4.2 11.49,-1.961 3.2,-1.699 6.89,-1.824 9.79,0.703 2.91,2.527 3.29,6.191 2.06,9.59 2.15,2.605 2.38,6.402 1.03,9.441 z m 53.9,-62.008 h 131.89 v -30.117 h -120.96 c 0.85,2.203 0.47,4.793 -1.47,7.012 -2.83,3.262 -6.92,3.332 -9.75,0.863 -0.59,-0.508 -1.12,-1.191 -1.49,-2.133 -2.47,1.875 -6.13,3.075 -9.13,0.469 -2.08,-1.809 -2.68,-4.019 -2.14,-6.016 -0.21,-0.07 -0.43,-0.136 -0.64,-0.195 h -6.55 c -2.11,0.594 -4.07,1.777 -5.6,3.535 -4.12,4.735 -3.83,12.344 0.88,16.43 0.6,0.527 1.52,0.465 2.06,-0.141 0.28,-0.332 0.41,-0.781 0.36,-1.175 -0.38,-2.422 -1.14,-3.559 -2.74,-5.247 l 0.9,-1.039 c 2.74,-3.156 7.85,-4.199 11.49,-1.957 3.19,-1.695 6.87,-1.824 9.78,0.703 2.91,2.524 3.3,6.192 2.07,9.59 2.14,2.598 2.38,6.387 1.04,9.418 z m 53.9,-62.011 h 77.99 v -21.25 c 0,-2.989 -0.09,-5.938 -0.27,-8.868 h -66.82 c 0.86,2.207 0.48,4.805 -1.45,7.032 -2.84,3.261 -6.92,3.328 -9.77,0.867 -0.57,-0.504 -1.1,-1.192 -1.47,-2.125 -2.48,1.863 -6.13,3.074 -9.13,0.465 -2.08,-1.805 -2.69,-4.024 -2.14,-6.012 -0.24,-0.078 -0.48,-0.16 -0.72,-0.227 h -6.41 c -2.14,0.586 -4.12,1.778 -5.66,3.555 -4.12,4.746 -3.83,12.344 0.87,16.434 0.61,0.531 1.53,0.461 2.06,-0.145 0.29,-0.332 0.42,-0.781 0.36,-1.172 -0.38,-2.422 -1.13,-3.554 -2.75,-5.246 l 0.91,-1.043 c 2.75,-3.144 7.85,-4.199 11.5,-1.953 3.19,-1.699 6.87,-1.824 9.78,0.703 2.9,2.52 3.29,6.192 2.05,9.59 2.15,2.598 2.39,6.367 1.07,9.395 z m 53.88,-62.012 h 18.01 c -2.4,-7.7931 -5.48,-15.2931 -9.16,-22.4416 -2.78,2.6485 -6.51,2.5391 -9.16,0.2539 -0.59,-0.5078 -1.11,-1.1914 -1.47,-2.1406 -2.48,1.875 -6.15,3.0781 -9.13,0.4688 -2.08,-1.8047 -2.7,-4.0117 -2.14,-6.0039 -0.27,-0.0977 -0.53,-0.1758 -0.8,-0.2539 h -6.26 c -2.16,0.5859 -4.17,1.7851 -5.74,3.582 -4.12,4.7383 -3.82,12.3437 0.87,16.4375 0.61,0.5273 1.54,0.457 2.06,-0.1563 0.3,-0.332 0.41,-0.7734 0.36,-1.1718 -0.38,-2.4219 -1.13,-3.5547 -2.74,-5.2344 l 0.91,-1.0469 c 2.73,-3.1523 7.85,-4.1992 11.48,-1.9609 3.2,-1.6992 6.89,-1.8164 9.79,0.7031 2.91,2.5273 3.3,6.1914 2.06,9.5898 2.14,2.5862 2.38,6.3552 1.06,9.3752 z m -252.26,155.914 v 27.062 l 23.52,-27.062 z m 0,-62.008 v 30.117 h 51.25 l 26.18,-30.117 z m 0.28,-62.012 c -0.18,2.93 -0.28,5.879 -0.28,8.868 v 21.25 h 105.15 l 26.19,-30.118 z m 212.68,-93.8942 7.31,-8.4296 c -22.95,-16.9727 -51.35,-27.00395 -82.08,-27.00395 -35.53,0 -67.92,13.41015 -92.4,35.43355 z m -193.43,31.8829 c -5.62,9.3828 -10.15,19.4726 -13.43,30.1173 h 152.95 l 26.18,-30.1173 h -165.7" /><path
             id="path60"
             style="fill:#ffffff;fill-opacity:1;fill-rule:evenodd;stroke:none"
             d="m 1137.88,208.617 c -0.95,4.664 -0.5,9.574 1.52,13.731 -4.4,-1.43 -9.33,-1.188 -13.81,0.402 z m -53.89,61.988 c -0.95,4.668 -0.5,9.575 1.52,13.731 -4.39,-1.426 -9.31,-1.191 -13.81,0.398 z m 26.94,-30.992 c -0.94,4.664 -0.5,9.575 1.53,13.727 -4.4,-1.426 -9.32,-1.188 -13.81,0.398 z m 53.89,-61.984 c -0.96,4.656 -0.51,9.566 1.52,13.719 -4.39,-1.426 -9.32,-1.184 -13.81,0.41 z m 26.93,-30.996 c -0.94,4.656 -0.5,9.578 1.54,13.726 -4.4,-1.425 -9.33,-1.187 -13.81,0.403 z m 26.95,-31 c -0.95,4.668 -0.5,9.582 1.53,13.73 -4.4,-1.425 -9.33,-1.179 -13.81,0.403 z m 26.94,-30.9846 c -0.95,4.6563 -0.5,9.5704 1.52,13.7305 -4.39,-1.4375 -9.31,-1.1914 -13.8,0.3906 z m 26.1,-30.039 0.58,0.625 c -0.57,4.1797 -0.01,8.457 1.79,12.1484 -4.4,-1.4258 -9.32,-1.1914 -13.81,0.3906 z M 1057.05,301.602 c -0.95,4.664 -0.5,9.574 1.52,13.73 -4.4,-1.43 -9.32,-1.191 -13.8,0.395 z M 1256.97,40.6445 1031.56,299.949 v -5.265 L 1254.25,38.4961 c 0.91,0.7031 1.82,1.4258 2.72,2.1484 z M 1031.56,304.566 1259.29,42.5898 c 1.97,1.6758 3.9,3.418 5.77,5.2032 l -233.5,268.621 z M 1196.8,136.211 1035.77,321.465 h -4.21 v -0.442 L 1267.23,49.9023 c 0.83,0.8204 1.64,1.6485 2.44,2.4805 z m 94.37,-54.3946 c -0.06,0.0781 -0.12,0.1563 -0.19,0.2344 -1.37,1.5703 -3.91,1.9336 -5.49,0.5664 -0.84,-0.7422 -1.32,-1.6016 -1.42,-2.5977 l -2.67,-0.7617 c -1.99,2.2852 -4.82,3.1641 -6.51,1.6992 -2.23,-1.9336 -1.14,-3.2734 0.09,-5.1484 -6.64,-3.2305 -14,-3.3281 -19.29,2.7656 -5.14,5.8985 -4.88,15.4297 1.17,20.6914 1.87,1.6324 4.71,1.4374 6.33,-0.4375 0.87,-0.9961 1.23,-2.3359 1.07,-3.5547 -0.24,-1.6211 -0.8,-3.3398 -1.67,-4.7265 2.77,-2.0821 5.7,-1.4766 8.13,0.5469 2.45,-1.5743 5.37,-2.9688 8,-0.6836 2.63,2.2851 1.65,5.3711 0.44,8.0156 2.34,2.1292 3.34,4.9532 1.67,7.9692 -3.27,-1.454 -8.27,-1.375 -10.65,0.585 -2.16,1.75 -1.98,4.504 0.45,5.911 2.64,1.582 7.57,0.957 10.59,-0.926 2.08,2.762 1.47,5.691 -0.55,8.133 1.57,2.441 2.97,5.351 0.68,7.988 -2.28,2.637 -5.37,1.66 -8.02,0.437 -2.12,2.344 -4.94,3.352 -7.96,1.672 1.44,-3.242 1.37,-8.222 -0.56,-10.605 -1.73,-2.219 -4.48,-2 -5.92,0.371 -1.61,2.637 -0.98,7.598 0.91,10.625 -2.76,2.078 -5.69,1.484 -8.13,-0.547 -2.45,1.57 -5.37,2.969 -7.99,0.684 -2.64,-2.285 -1.65,-5.371 -0.44,-8.008 -2.35,-2.129 -3.35,-4.953 -1.67,-7.981 1.49,0.676 3.28,0.981 4.9,1.008 1.24,-0.019 2.51,-0.566 3.38,-1.562 1.62,-1.875 1.42,-4.707 -0.44,-6.328 -6.06,-5.274 -15.54,-4.192 -20.66,1.718 -5.3,6.082 -4.17,13.368 -0.05,19.473 1.69,-1.465 2.85,-2.734 5.07,-0.801 1.68,1.465 1.22,4.403 -0.77,6.688 l 1.14,2.531 c 0.98,-0.02 1.91,0.332 2.76,1.062 1.57,1.368 1.57,3.938 0.2,5.52 -1.36,1.562 -3.91,1.922 -5.48,0.555 -0.84,-0.731 -1.33,-1.602 -1.44,-2.586 l -2.67,-0.774 c -1.99,2.285 -4.82,3.164 -6.51,1.7 -2.23,-1.93 -1.13,-3.27 0.09,-5.145 -6.62,-3.223 -14,-3.32 -19.29,2.762 -5.13,5.91 -4.88,15.441 1.17,20.703 1.88,1.625 4.71,1.426 6.33,-0.438 0.87,-1.007 1.23,-2.343 1.08,-3.562 -0.25,-1.613 -0.8,-3.332 -1.67,-4.719 2.76,-2.078 5.69,-1.484 8.13,0.547 2.44,-1.574 5.36,-2.969 7.99,-0.684 2.64,2.286 1.66,5.371 0.44,8.008 2.34,2.129 3.35,4.949 1.67,7.977 -3.26,-1.453 -8.26,-1.375 -10.65,0.578 -2.14,1.758 -1.98,4.512 0.45,5.918 2.64,1.582 7.57,0.957 10.59,-0.938 2.08,2.774 1.47,5.703 -0.55,8.133 1.57,2.453 2.98,5.363 0.69,8 -2.29,2.637 -5.38,1.649 -8.01,0.43 -2.13,2.344 -4.95,3.347 -7.98,1.68 1.44,-3.254 1.39,-8.223 -0.56,-10.618 -1.72,-2.215 -4.47,-2 -5.91,0.383 -1.61,2.625 -0.98,7.586 0.9,10.625 -2.76,2.07 -5.69,1.473 -8.12,-0.547 -2.45,1.563 -5.36,2.969 -8,0.684 -2.63,-2.293 -1.65,-5.371 -0.43,-8.02 -2.34,-2.129 -3.35,-4.949 -1.68,-7.968 1.49,0.664 3.28,0.976 4.91,0.996 1.23,-0.02 2.5,-0.567 3.37,-1.563 1.63,-1.863 1.43,-4.707 -0.44,-6.324 -6.05,-5.266 -15.52,-4.191 -20.66,1.715 -5.29,6.086 -4.17,13.371 -0.05,19.484 1.69,-1.465 2.85,-2.734 5.08,-0.801 1.69,1.465 1.21,4.395 -0.77,6.68 l 1.13,2.539 c 1,-0.031 1.92,0.332 2.76,1.055 1.57,1.367 1.57,3.945 0.21,5.515 -1.37,1.575 -3.92,1.93 -5.49,0.563 -0.84,-0.731 -1.32,-1.602 -1.44,-2.586 l -2.66,-0.773 c -1.98,2.285 -4.83,3.164 -6.51,1.699 -2.22,-1.934 -1.14,-3.266 0.08,-5.141 -6.62,-3.234 -13.99,-3.332 -19.28,2.762 -5.13,5.898 -4.89,15.437 1.17,20.699 1.87,1.625 4.7,1.426 6.33,-0.445 0.86,-0.996 1.24,-2.332 1.08,-3.559 -0.25,-1.609 -0.8,-3.336 -1.67,-4.722 2.76,-2.079 5.69,-1.473 8.12,0.554 2.46,-1.578 5.37,-2.976 8,-0.691 2.63,2.293 1.65,5.375 0.43,8.019 2.35,2.129 3.35,4.946 1.68,7.969 -3.27,-1.449 -8.27,-1.379 -10.64,0.586 -2.16,1.754 -1.99,4.508 0.45,5.906 2.63,1.59 7.56,0.957 10.58,-0.925 2.07,2.761 1.48,5.691 -0.55,8.128 1.58,2.446 2.97,5.368 0.68,8 -2.29,2.629 -5.36,1.649 -8.01,0.434 -2.13,2.344 -4.95,3.348 -7.98,1.676 1.46,-3.254 1.39,-8.223 -0.54,-10.613 -1.73,-2.215 -4.49,-2 -5.92,0.378 -1.61,2.625 -0.99,7.59 0.91,10.618 -2.77,2.082 -5.7,1.48 -8.14,-0.547 -2.45,1.574 -5.36,2.976 -8,0.683 -2.62,-2.285 -1.65,-5.371 -0.43,-8.011 -2.34,-2.129 -3.35,-4.946 -1.68,-7.969 1.5,0.668 3.29,0.973 4.92,0.996 1.24,-0.02 2.51,-0.563 3.37,-1.563 1.63,-1.871 1.43,-4.703 -0.44,-6.328 -6.06,-5.261 -15.53,-4.183 -20.67,1.719 -5.29,6.09 -4.17,13.375 -0.05,19.488 1.69,-1.476 2.86,-2.738 5.08,-0.804 1.69,1.465 1.21,4.398 -0.77,6.683 l 1.13,2.535 c 1,-0.027 1.93,0.325 2.77,1.059 1.57,1.367 1.57,3.941 0.2,5.512 -1.37,1.574 -3.91,1.929 -5.49,0.562 -0.84,-0.734 -1.32,-1.601 -1.42,-2.59 l -2.68,-0.769 c -1.98,2.285 -4.82,3.164 -6.5,1.699 -2.23,-1.934 -1.14,-3.266 0.09,-5.141 -6.64,-3.234 -14,-3.328 -19.29,2.758 -5.14,5.907 -4.88,15.438 1.17,20.703 1.87,1.625 4.7,1.426 6.33,-0.445 0.87,-0.996 1.23,-2.328 1.07,-3.559 -0.24,-1.613 -0.8,-3.335 -1.67,-4.722 2.77,-2.074 5.7,-1.473 8.13,0.551 2.45,-1.571 5.36,-2.973 8,-0.684 2.63,2.285 1.65,5.367 0.43,8.016 2.35,2.129 3.34,4.945 1.67,7.972 -3.26,-1.457 -8.27,-1.383 -10.64,0.582 -2.16,1.75 -1.98,4.504 0.45,5.907 2.64,1.586 7.57,0.957 10.59,-0.922 2.08,2.758 1.47,5.691 -0.55,8.125 1.57,2.449 2.97,5.359 0.68,7.996 -2.29,2.633 -5.37,1.652 -8.02,0.437 -2.12,2.344 -4.95,3.348 -7.96,1.672 1.44,-3.25 1.37,-8.222 -0.56,-10.609 -1.73,-2.215 -4.48,-2.008 -5.92,0.375 -1.61,2.629 -0.99,7.594 0.91,10.625 -2.76,2.078 -5.69,1.476 -8.13,-0.551 -2.45,1.578 -5.37,2.973 -7.99,0.684 -2.64,-2.286 -1.66,-5.368 -0.44,-8.012 -2.35,-2.129 -3.35,-4.945 -1.68,-7.969 1.5,0.668 3.28,0.977 4.91,0.996 1.24,-0.019 2.51,-0.566 3.38,-1.562 1.62,-1.871 1.42,-4.703 -0.45,-6.328 -6.06,-5.266 -15.53,-4.184 -20.66,1.718 -5.29,6.09 -4.17,13.375 -0.04,19.481 1.68,-1.465 2.85,-2.735 5.07,-0.801 1.68,1.465 1.39,4.758 -1.4,7.258 h -30.42 c 5.88,-4.508 13.9,-5.309 20.63,-1.801 l 1.14,-1.301 1.12,-1.297 c -5.18,-7.257 -4.72,-17.105 1.19,-23.898 5.91,-6.797 15.6,-8.617 23.5,-4.5 l 1.13,-1.297 1.12,-1.297 c -5.17,-7.258 -4.71,-17.105 1.19,-23.902 5.9,-6.793 15.59,-8.613 23.5,-4.496 l 1.13,-1.301 1.13,-1.297 c -5.18,-7.258 -4.72,-17.101 1.18,-23.898 5.91,-6.797 15.59,-8.617 23.5,-4.5 l 1.14,-1.297 1.12,-1.297 c -5.18,-7.262 -4.73,-17.106 1.18,-23.902 5.91,-6.797 15.6,-8.614 23.51,-4.5 l 1.12,-1.289 1.13,-1.309 c -5.17,-7.246 -4.72,-17.102 1.18,-23.887 5.91,-6.797 15.6,-8.625 23.51,-4.511 l 1.12,-1.29 1.14,-1.3 c -5.18,-7.254 -4.73,-17.098 1.18,-23.895 5.91,-6.797 15.59,-8.613 23.5,-4.504 l 1.13,-1.297 1.13,-1.3 c -5.19,-7.254 -4.73,-17.098 1.18,-23.895 5.91,-6.797 15.6,-8.6132 23.5,-4.504 l 1.13,-1.297 1.12,-1.301 c -5.17,-7.2534 -4.71,-17.0972 1.19,-23.8941 5.91,-6.7968 15.6,-8.6132 23.5,-4.5 l 1.13,-1.3007 1.13,-1.2891 c -2.29,-3.2031 -3.47,-6.9141 -3.58,-10.6445 6.1,7.1875 11.48,15 16.02,23.3398 z m -45.34,44.4536 1.95,1.707 7.65,-8.817 -1.95,-1.699 z m 28.78,-33.1059 1.96,1.6992 -7.66,8.8087 -1.95,-1.699 z m -14.98,19.1989 c 1,0.86 2.5,0.762 3.36,-0.234 0.86,-0.996 0.76,-2.5 -0.23,-3.359 -1,-0.86 -2.5,-0.754 -3.36,0.234 -0.86,0.996 -0.75,2.5 0.23,3.359 z m -1.63,1.875 c 2.03,1.758 5.1,1.543 6.87,-0.48 1.76,-2.031 1.54,-5.098 -0.48,-6.863 -2.03,-1.758 -5.1,-1.543 -6.87,0.488 -1.75,2.019 -1.54,5.097 0.48,6.855 z m -33.28,71.727 -1.7,1.965 -8.81,-7.657 1.7,-1.964 z m -3.99,-30.82 1.95,1.71 -7.66,8.809 -1.95,-1.711 z m -28.79,33.117 1.96,1.699 7.66,-8.809 -1.97,-1.699 z m 16.93,-17.5 c 0.99,0.859 1.1,2.363 0.24,3.359 -0.86,0.984 -2.37,1.094 -3.35,0.234 -1,-0.871 -1.11,-2.363 -0.24,-3.359 0.86,-0.996 2.37,-1.094 3.35,-0.234 z m 1.63,-1.875 c 2.03,1.758 2.25,4.832 0.48,6.855 -1.76,2.031 -4.83,2.246 -6.85,0.488 -2.04,-1.765 -2.25,-4.843 -0.49,-6.867 1.77,-2.019 4.83,-2.234 6.86,-0.476 z m -41.36,81.023 1.69,-1.953 -8.8,-7.66 -1.7,1.957 z m -31.08,0.34 1.95,1.703 7.66,-8.808 -1.95,-1.704 z m 28.78,-33.117 1.96,1.707 -7.66,8.805 -1.96,-1.704 z m -14.97,19.203 c 0.99,0.859 2.49,0.758 3.35,-0.234 0.86,-0.989 0.76,-2.493 -0.23,-3.352 -0.99,-0.867 -2.49,-0.758 -3.35,0.234 -0.86,0.989 -0.77,2.493 0.23,3.352 z m -1.63,1.875 c 2.02,1.766 5.1,1.551 6.85,-0.477 1.77,-2.027 1.56,-5.097 -0.47,-6.859 -2.03,-1.766 -5.1,-1.551 -6.86,0.477 -1.77,2.027 -1.55,5.097 0.48,6.859 z m -33.29,71.734 -1.7,1.957 -8.81,-7.66 1.7,-1.957 z m -4,-30.824 1.97,1.703 -7.66,8.809 -1.96,-1.703 z m -28.78,33.113 1.96,1.707 7.65,-8.808 -1.95,-1.707 z m 16.94,-17.5 c 0.98,0.86 1.09,2.364 0.23,3.356 -0.87,0.992 -2.36,1.094 -3.36,0.234 -0.98,-0.863 -1.09,-2.363 -0.23,-3.355 0.86,-0.989 2.36,-1.094 3.36,-0.235 z m 1.62,-1.875 c 2.03,1.766 2.25,4.836 0.49,6.864 -1.77,2.023 -4.84,2.238 -6.87,0.476 -2.02,-1.761 -2.23,-4.832 -0.48,-6.859 1.76,-2.027 4.84,-2.242 6.86,-0.481 z m 174.17,-166.921 1.71,-1.954 -8.81,-7.656 -1.71,1.953 8.81,7.657" /><path
             id="path62"
             style="fill:#231f20;fill-opacity:1;fill-rule:nonzero;stroke:none"
             d="m 905.043,0 v 325.984 h 4.98 V 0 h -4.98 v 0" /><path
             id="path64"
             style="fill:#231f20;fill-opacity:1;fill-rule:nonzero;stroke:none"
             d="m 285.969,308.836 c 0,6.691 -2.91,6.398 -9.399,7.176 v 1.644 l 17.567,2.231 v -52.93 c 0,-7.949 0,-8.531 7.703,-8.531 h 8.359 c 7.043,0 7.324,4.074 8.078,10.566 h 2.911 l -0.469,-14.344 h -34.75 v 54.188" /><path
             id="path66"
             style="fill:#231f20;fill-opacity:1;fill-rule:nonzero;stroke:none"
             d="m 343.484,280.047 h 21.321 l -10.61,29.566 z m 4.793,28.398 c 0.653,1.75 1.407,3.688 1.407,5.235 0,2.527 -2.536,3.394 -7.235,4.562 v 1.645 h 16.16 l 24.235,-65.239 h -9.114 l -7.89,21.618 h -23.672 l -7.418,-21.618 h -5.918 l 19.445,53.797" /><path
             id="path68"
             style="fill:#231f20;fill-opacity:1;fill-rule:nonzero;stroke:none"
             d="m 394.883,308.445 c 0,7.762 -1.313,8.438 -9.391,9.797 v 1.645 h 18.785 l 29.493,-52.93 h 0.191 v 52.93 h 4.883 v -65.239 h -7.141 l -31.746,56.903 h -0.187 v -56.903 h -4.887 v 53.797" /><path
             id="path70"
             style="fill:#231f20;fill-opacity:1;fill-rule:nonzero;stroke:none"
             d="m 467.852,265.602 c 0,-4.747 0,-7.176 4.98,-7.176 15.121,0 22.637,8.531 22.637,28.797 0,16.668 -4.414,28.886 -21.231,28.886 -5.633,0 -6.386,-0.972 -6.386,-7.273 z m -8.168,43.234 c 0,7.371 -1.223,7.754 -9.395,9.406 v 1.645 h 19.91 c 19.914,0 34.473,-3.973 34.473,-32.664 0,-28.7 -15.215,-32.575 -34.848,-32.575 h -10.14 v 54.188" /><path
             id="path72"
             style="fill:#231f20;fill-opacity:1;fill-rule:nonzero;stroke:none"
             d="m 520.195,309.711 c 0,5.523 -1.312,7.363 -9.488,8.531 v 1.645 h 44.336 l 0.469,-11.824 h -2.918 c -0.938,5.039 -0.84,8.046 -8.633,8.046 h -9.863 c -5.352,0 -5.731,-1.164 -5.731,-6.398 v -19.098 h 11.93 c 7.793,0 8.449,3.489 9.211,8.043 h 2.148 v -20.062 h -2.148 c -0.949,5.621 -1.231,8.238 -9.211,8.238 h -11.93 v -22.781 c 0,-5.625 0.848,-5.625 7.703,-5.625 h 10.137 c 6.387,0 6.863,2.039 8.184,9.406 h 2.91 l -0.664,-13.184 h -36.442 v 55.063" /><path
             id="path74"
             style="fill:#231f20;fill-opacity:1;fill-rule:nonzero;stroke:none"
             d="m 602.77,312.617 c -2.911,1.356 -8.926,3.973 -15.5,3.973 -6.766,0 -11.368,-3.777 -11.368,-9.692 0,-15.316 30.996,-13.378 30.996,-34.609 0,-13.375 -10.71,-18.707 -22.82,-18.707 -6.582,0 -13.437,1.551 -15.031,1.941 v 6.688 c 3.476,-1.746 9.953,-4.266 16.34,-4.266 8.269,0 13.152,4.071 13.152,12.309 0,16.387 -30.144,13.961 -30.144,34.316 0,10.567 7.976,16.387 20.468,16.387 6.114,0 11.18,-0.973 13.907,-1.555 v -6.785" /><path
             id="path76"
             style="fill:#231f20;fill-opacity:1;fill-rule:nonzero;stroke:none"
             d="m 628.492,280.047 h 21.309 l -10.606,29.566 z m 4.785,28.398 c 0.653,1.75 1.407,3.688 1.407,5.235 0,2.527 -2.539,3.394 -7.227,4.562 v 1.645 h 16.152 l 24.239,-65.239 h -9.121 l -7.891,21.618 h -23.672 l -7.414,-21.618 h -5.918 l 19.445,53.797" /><path
             id="path78"
             style="fill:#231f20;fill-opacity:1;fill-rule:nonzero;stroke:none"
             d="m 679.977,308.445 c 0,7.762 -1.133,8.047 -9.395,9.797 v 1.645 h 20.566 l 18.602,-55.739 h 0.188 l 18.593,55.739 h 11.367 v -65.239 h -8.164 v 60.102 h -0.195 L 711.91,254.648 h -7.324 l -19.531,60.102 h -0.196 v -60.102 h -4.882 v 53.797" /><path
             id="path80"
             style="fill:#231f20;fill-opacity:1;fill-rule:nonzero;stroke:none"
             d="m 771.84,316.109 h -8.445 c -7.891,0 -8.086,-3.492 -8.653,-9.406 h -2.91 l 0.469,13.184 h 47.246 l 0.469,-13.184 h -2.911 c -0.566,5.914 -0.566,9.406 -8.632,9.406 h -8.457 v -61.461 h -8.176 v 61.461" /><path
             id="path82"
             style="fill:#231f20;fill-opacity:1;fill-rule:nonzero;stroke:none"
             d="m 9.48828,189.711 c 0,5.523 -1.3125,7.363 -9.48828,8.531 v 1.645 h 44.3359 l 0.4688,-11.824 h -2.9141 c -0.9375,5.039 -0.8476,8.046 -8.6367,8.046 h -9.8633 c -5.3554,0 -5.7304,-1.164 -5.7304,-6.398 v -19.098 h 11.9296 c 7.793,0 8.4532,3.489 9.2032,8.043 h 2.1601 V 158.594 H 38.793 c -0.9414,5.621 -1.2188,8.238 -9.2032,8.238 H 17.6602 V 134.648 H 9.48828 v 55.063" /><path
             id="path84"
             style="fill:#231f20;fill-opacity:1;fill-rule:nonzero;stroke:none"
             d="m 88.0195,213.07 c 0,2.715 2.1602,4.946 4.8868,4.946 2.625,0 4.789,-2.231 4.789,-4.946 0,-2.715 -2.164,-4.941 -4.789,-4.941 -2.6329,0 -4.8868,2.129 -4.8868,4.941 z m -16.5312,0 c 0,2.715 2.1601,4.946 4.793,4.946 2.625,0 4.8789,-2.231 4.8789,-4.946 0,-2.715 -2.2539,-4.941 -4.8789,-4.941 -2.543,0 -4.793,2.129 -4.793,4.941 z m 33.9067,-54.285 c 0,-11.922 0,-25.199 -21.1333,-25.199 -20.1953,0 -21.6992,11.336 -21.6992,24.812 v 30.442 c 0,6.687 -3.0039,6.394 -9.3906,7.172 v 1.644 l 17.5664,2.231 v -41.489 c 0,-7.082 0,-21.035 13.6172,-21.035 15.4961,0 15.4961,11.153 15.4961,20.266 v 42.258 h 5.5434 v -41.102" /><path
             id="path86"
             style="fill:#231f20;fill-opacity:1;fill-rule:nonzero;stroke:none"
             d="m 134.059,170.516 h 2.539 c 6.664,0 18.125,0 18.125,13.57 0,9.211 -6.672,12.023 -13.996,12.023 -6.293,0 -6.668,-0.777 -6.668,-6.496 z m -8.168,19.097 c 0,6.782 -1.504,6.977 -9.489,8.629 v 1.645 h 26.582 c 11.454,0 20.942,-2.813 20.942,-16.766 0,-11.055 -7.985,-14.641 -16.25,-15.808 l 18.972,-32.665 h -9.203 l -18.691,32.086 h -4.695 v -32.086 h -8.168 v 54.965" /><path
             id="path88"
             style="fill:#231f20;fill-opacity:1;fill-rule:nonzero;stroke:none"
             d="m 214.457,160.047 h 21.32 l -10.613,29.566 z m 4.789,28.398 c 0.656,1.75 1.406,3.688 1.406,5.235 0,2.527 -2.531,3.394 -7.23,4.562 v 1.645 h 16.156 l 24.235,-65.239 h -9.11 l -7.89,21.622 h -23.672 l -7.418,-21.622 h -5.918 l 19.441,53.797" /><path
             id="path90"
             style="fill:#231f20;fill-opacity:1;fill-rule:nonzero;stroke:none"
             d="m 274.07,170.516 h 2.535 c 6.672,0 18.129,0 18.129,13.57 0,9.211 -6.668,12.023 -13.992,12.023 -6.293,0 -6.672,-0.777 -6.672,-6.496 z m -8.168,19.097 c 0,6.782 -1.504,6.977 -9.488,8.629 v 1.645 h 26.582 c 11.457,0 20.945,-2.813 20.945,-16.766 0,-11.055 -7.984,-14.641 -16.25,-15.808 l 18.973,-32.665 h -9.203 l -18.691,32.086 h -4.7 v -32.086 h -8.168 v 54.965" /><path
             id="path92"
             style="fill:#231f20;fill-opacity:1;fill-rule:nonzero;stroke:none"
             d="m 361.195,136.297 c -4.507,-1.551 -8.922,-2.711 -17.656,-2.711 -17.656,0 -27.234,16.187 -27.234,35.863 0,17.641 5.726,31.508 24.98,31.508 14.184,0 19.258,-7.66 19.91,-14.254 h -9.203 c -0.469,3.008 -2.066,9.887 -11.269,9.887 -9.957,0 -15.215,-9.789 -15.215,-24.621 0,-13.766 2.629,-34.02 23.199,-34.02 5.539,0 11.367,2.031 12.488,2.422 v -4.074" /><path
             id="path94"
             style="fill:#231f20;fill-opacity:1;fill-rule:nonzero;stroke:none"
             d="m 377.438,188.84 c 0,6.687 -3.008,6.394 -9.395,7.172 v 1.644 l 17.562,2.231 V 170.32 h 27.52 v 29.567 h 8.176 v -65.239 h -8.176 v 31.895 h -27.52 v -31.895 h -8.167 v 54.192" /><path
             id="path96"
             style="fill:#231f20;fill-opacity:1;fill-rule:nonzero;stroke:none"
             d="m 461.355,213.07 c 0,2.715 2.161,4.946 4.883,4.946 2.633,0 4.793,-2.231 4.793,-4.946 0,-2.715 -2.16,-4.941 -4.793,-4.941 -2.629,0 -4.883,2.129 -4.883,4.941 z m -13.898,-53.023 h 21.316 l -10.609,29.566 z m -2.633,53.023 c 0,2.715 2.164,4.946 4.789,4.946 2.633,0 4.883,-2.231 4.883,-4.946 0,-2.715 -2.25,-4.941 -4.883,-4.941 -2.535,0 -4.789,2.129 -4.789,4.941 z m 7.422,-24.625 c 0.652,1.75 1.406,3.688 1.406,5.235 0,2.527 -2.535,3.394 -7.23,4.562 v 1.645 h 16.156 l 24.235,-65.239 h -9.114 l -7.89,21.622 h -23.672 l -7.414,-21.622 h -5.918 l 19.441,53.797" /><path
             id="path98"
             style="fill:#231f20;fill-opacity:1;fill-rule:nonzero;stroke:none"
             d="m 533.344,167.223 c 0,12.211 -0.656,29.949 -15.215,29.949 -14.375,0 -15.402,-16.578 -15.402,-29.949 0,-12.125 0.652,-29.86 15.402,-29.86 14.18,0 15.215,16.571 15.215,29.86 z m -39.824,0 c 0,20.742 5.918,33.734 24.609,33.734 18.785,0 24.426,-14.449 24.426,-33.734 0,-20.551 -5.832,-33.637 -24.426,-33.637 -19.352,0 -24.609,14.344 -24.609,33.637" /><path
             id="path100"
             style="fill:#231f20;fill-opacity:1;fill-rule:nonzero;stroke:none"
             d="m 558.297,188.84 c 0,6.687 -2.91,6.394 -9.395,7.172 v 1.644 l 17.559,2.231 v -52.922 c 0,-7.953 0,-8.539 7.715,-8.539 h 8.359 c 7.031,0 7.324,4.074 8.067,10.566 h 2.91 l -0.469,-14.344 h -34.746 v 54.192" /><path
             id="path102"
             style="fill:#231f20;fill-opacity:1;fill-rule:nonzero;stroke:none"
             d="m 642.887,167.223 c 0,12.211 -0.664,29.949 -15.227,29.949 -14.363,0 -15.398,-16.578 -15.398,-29.949 0,-12.125 0.652,-29.86 15.398,-29.86 14.192,0 15.227,16.571 15.227,29.86 z m -39.824,0 c 0,20.742 5.917,33.734 24.597,33.734 18.789,0 24.426,-14.449 24.426,-33.734 0,-20.551 -5.82,-33.637 -24.426,-33.637 -19.344,0 -24.597,14.344 -24.597,33.637" /><path
             id="path104"
             style="fill:#231f20;fill-opacity:1;fill-rule:nonzero;stroke:none"
             d="m 711.879,136.395 c -2.723,-0.68 -11.18,-2.809 -19.727,-2.809 -19.246,0 -27.898,13.379 -27.898,36.254 0,18.515 5.828,31.117 25.555,31.117 14.093,0 20.949,-6.5 21.515,-14.543 h -9.219 c -0.468,3.781 -2.617,10.176 -12.48,10.176 -14.66,0 -16.164,-15.414 -16.164,-25.977 0,-16.289 4.98,-32.664 23.019,-32.664 3.094,0 4.598,0.184 7.227,0.867 v 20.649 c 0,7.66 -1.309,8.433 -9.484,9.793 v 1.644 h 17.656 v -34.507" /><path
             id="path106"
             style="fill:#231f20;fill-opacity:1;fill-rule:nonzero;stroke:none"
             d="m 730.551,188.84 c 0,6.687 -2.918,6.394 -9.395,7.172 v 1.644 l 17.571,2.231 v -65.239 h -8.176 v 54.192" /><path
             id="path108"
             style="fill:#231f20;fill-opacity:1;fill-rule:nonzero;stroke:none"
             d="m 759.898,189.711 c 0,5.523 -1.308,7.363 -9.484,8.531 v 1.645 h 44.336 l 0.469,-11.824 h -2.918 c -0.938,5.039 -0.84,8.046 -8.633,8.046 h -9.863 c -5.352,0 -5.723,-1.164 -5.723,-6.398 v -19.098 h 11.922 c 7.793,0 8.449,3.489 9.211,8.043 h 2.148 v -20.062 h -2.148 c -0.949,5.621 -1.231,8.238 -9.211,8.238 h -11.922 v -22.781 c 0,-5.625 0.84,-5.625 7.695,-5.625 h 10.137 c 6.387,0 6.863,2.043 8.184,9.406 h 2.91 l -0.664,-13.184 h -36.446 v 55.063" /></g></g></g></g></svg>